<?xml version="1.0" encoding="utf-8"?>
<!-- Generator: Adobe Illustrator 19.0.0, SVG Export Plug-In . SVG Version: 6.00 Build 0)  -->
<svg version="1.1" id="Capa_1" xmlns="http://www.w3.org/2000/svg" xmlns:xlink="http://www.w3.org/1999/xlink" x="0px" y="0px"
	 viewBox="0 0 262.1 291.7" style="enable-background:new 0 0 262.1 291.7;" xml:space="preserve">
<style type="text/css">
	.st0{fill:url(#SVGID_1_);}
	.st1{fill:#E96796;}
	.st2{fill:url(#SVGID_2_);}
	.st3{fill:#18509A;}
	.st4{fill:url(#SVGID_3_);}
	.st5{fill:url(#SVGID_4_);}
	.st6{fill:#7963A3;}
	.st7{fill:#B34D92;}
	.st8{fill:url(#SVGID_5_);}
	.st9{fill:url(#SVGID_6_);}
	.st10{fill:#2F4C97;}
	.st11{fill:url(#SVGID_7_);}
	.st12{fill:url(#SVGID_8_);}
</style>
<g>
	<g>
		<linearGradient id="SVGID_1_" gradientUnits="userSpaceOnUse" x1="194.7593" y1="284.3286" x2="216.1255" y2="284.3286">
			<stop  offset="0" style="stop-color:#E96796"/>
			<stop  offset="1" style="stop-color:#C7155E"/>
		</linearGradient>
		<path class="st0" d="M209.2,282.8v0.1c0,1.3-1.1,2.2-3.5,2.2c-1.9,0-4-0.6-6.2-1.7l0,0c-0.4-0.2-0.9-0.3-1.4-0.3
			c-1.8,0-3.3,1.5-3.3,3.3c0,1.2,0.7,2.3,1.7,2.9l0,0c0,0,0,0,0,0c0.1,0.1,0.2,0.1,0.3,0.2c2.9,1.4,5.9,2.1,8.7,2.1
			c5.1,0,9.2-2,10.6-6.2c-5.7-3.4-11.8-6.2-18.3-8.3c1.6,1.1,3.5,1.8,5.3,2.3C206.4,280.4,209.2,281,209.2,282.8z"/>
		<g>
			<path class="st1" d="M207.8,273.1c-2.2-0.8-4.3-1.4-5.3-2.3c0.2,0.2,0.5,0.4,0.9,0.6c-2.9-1.3-5.6-2.8-8.3-4.4
				c0.2-0.7,0.5-1.3,0.9-1.9c-1,1.4-1.6,3.2-1.6,5.3v0.1c0,3.2,1.4,5.2,3.4,6.6c3.4,2.2,6.5,2.3,9.7,3.8c3,1.4,5.8,2.9,8.6,4.5
				c0.3-1,0.5-2.1,0.5-3.4v-0.1C216.6,276.5,211.9,274.5,207.8,273.1z"/>
			<linearGradient id="SVGID_2_" gradientUnits="userSpaceOnUse" x1="195.0992" y1="266.2266" x2="216.0884" y2="266.2266">
				<stop  offset="0" style="stop-color:#C7155E"/>
				<stop  offset="1" style="stop-color:#E96796"/>
			</linearGradient>
			<path class="st2" d="M203.4,271.5c-0.4-0.2-0.7-0.4-0.9-0.6c-0.4-0.4-0.6-0.8-0.6-1.2v-0.1c0-0.8,0.5-1.4,1.3-1.8
				c0.6-0.3,1.3-0.4,2.2-0.4c1.9,0,4,0.6,6.2,1.7l0,0c0.4,0.2,0.9,0.3,1.4,0.3c0.8,0,1.5-0.3,2-0.7c0.5-0.6,0.9-1.4,0.9-2.3
				c0-1.4-0.8-2.5-2-3.1c-2.8-1.4-6-2.3-9-2.3c-3.8,0-7.2,1.4-9.1,4.1c-0.4,0.6-0.7,1.2-0.9,1.9
				C197.8,268.7,200.6,270.1,203.4,271.5z"/>
		</g>
	</g>
	<g>
		<path class="st3" d="M68.7,281.6c-1,0-1.8,0.4-2.2,0.8c-1.6,1.3-3.3,2-5.4,2c-4.5,0-7.4-3.6-7.4-8.2v-0.1c0-4.4,2.9-8.1,7.1-8.1
			c2.2,0,3.7,0.7,5.2,1.9c0.5,0.4,1.3,0.8,2.4,0.8c2.1,0,3.7-1.7,3.7-3.8c0-1.4-0.8-2.4-1.3-2.9c-2.4-2.1-5.5-3.3-9.9-3.3
			c-8.9,0-15.3,7-15.3,15.4v0.1c0,8.5,6.4,15.3,15.2,15.3c4.8,0,7.9-1.5,10.3-3.8c0.7-0.7,1.2-1.5,1.2-2.7
			C72.1,283.2,70.6,281.6,68.7,281.6z"/>
		<linearGradient id="SVGID_3_" gradientUnits="userSpaceOnUse" x1="50.0376" y1="271.6314" x2="71.9634" y2="271.6314">
			<stop  offset="0" style="stop-color:#0C2156"/>
			<stop  offset="1" style="stop-color:#2F4C97"/>
		</linearGradient>
		<path class="st4" d="M53.6,276.3v-0.1c0-4.4,2.9-8.1,7.1-8.1c2.2,0,3.7,0.7,5.2,1.9c0.5,0.4,1.3,0.8,2.4,0.8
			c2.1,0,3.7-1.7,3.7-3.8c0-1.4-0.8-2.4-1.3-2.9c-2.4-2.1-5.5-3.3-9.9-3.3c-3.8,0-7.2,1.3-9.7,3.4c-0.3,0.3-3.8,9.3,4.9,18.1
			C55.9,282.4,53.6,280.3,53.6,276.3z"/>
	</g>
	<g>
		<linearGradient id="SVGID_4_" gradientUnits="userSpaceOnUse" x1="88.6036" y1="276.272" x2="117.7925" y2="276.272">
			<stop  offset="0" style="stop-color:#7963A3"/>
			<stop  offset="1" style="stop-color:#442D6F"/>
		</linearGradient>
		<path class="st5" d="M103.4,260.9c-8.3,0-14.8,6.8-14.8,15.4c0,8.6,6.5,15.4,14.8,15.4c2,0,3.6-1.6,3.6-3.6c0-2-1.6-3.6-3.6-3.6
			c-4.3,0-7.6-3.6-7.6-8.1c0-4.6,3.4-8.1,7.6-8.1c3,0,5.5,1.8,6.6,4.5h-4.6c-2,0-3.6,1.6-3.6,3.6c0,2,1.6,3.6,3.6,3.6h8.8
			c2,0,3.6-1.6,3.6-3.6c0-4.1-1.4-7.9-4-10.8C111.1,262.5,107.4,260.9,103.4,260.9z"/>
		<path class="st6" d="M114.2,279.8h-8.8c-2,0-3.6-1.6-3.6-3.6c0-2,1.6-3.6,3.6-3.6h12c0,0,0.4,1.6,0.4,3.6
			C117.8,278.2,116.2,279.8,114.2,279.8z"/>
	</g>
	<g>
		<path class="st7" d="M140.9,260.7c-2.3,0-4.1,1.9-4.1,4.2v22.2c0,2.3,1.8,4.2,4.1,4.2c2.3,0,4.1-1.9,4.1-4.2v-22.2
			C145.1,262.6,143.2,260.7,140.9,260.7z"/>
		<linearGradient id="SVGID_5_" gradientUnits="userSpaceOnUse" x1="140.9307" y1="276.5674" x2="140.9307" y2="260.8485">
			<stop  offset="0" style="stop-color:#6C3374"/>
			<stop  offset="1" style="stop-color:#B34D92"/>
		</linearGradient>
		<path class="st8" d="M136.8,264.9c0-2.3,1.8-4.2,4.1-4.2c2.3,0,4.1,1.9,4.1,4.2c0,2.3-5.6,6.7-8.3,22.2V264.9z"/>
	</g>
	<g>
		<path class="st7" d="M170.4,260.7c-2.3,0-4.1,1.9-4.1,4.2v22.2c0,2.3,1.8,4.2,4.1,4.2c2.3,0,4.1-1.9,4.1-4.2v-22.2
			C174.5,262.6,172.6,260.7,170.4,260.7z"/>
		<linearGradient id="SVGID_6_" gradientUnits="userSpaceOnUse" x1="170.3634" y1="278.8075" x2="170.3634" y2="291.3437">
			<stop  offset="0" style="stop-color:#6C3374"/>
			<stop  offset="1" style="stop-color:#B34D92"/>
		</linearGradient>
		<path class="st9" d="M166.2,264.9c2.6,15.5,8.3,20,8.3,22.2c0,2.3-1.8,4.2-4.1,4.2c-2.3,0-4.1-1.9-4.1-4.2V264.9z"/>
	</g>
</g>
<circle class="st10" cx="82.6" cy="138.6" r="16.8"/>
<g>
	<linearGradient id="SVGID_7_" gradientUnits="userSpaceOnUse" x1="240.0738" y1="34.2119" x2="145.0989" y2="110.1272">
		<stop  offset="0" style="stop-color:#E96796"/>
		<stop  offset="0.5" style="stop-color:#C7155E"/>
		<stop  offset="0.917" style="stop-color:#A00D59"/>
		<stop  offset="1" style="stop-color:#850C4A"/>
	</linearGradient>
	<path class="st11" d="M237.6,24c-7.6-7.6-16.5-13.5-26.3-17.6c-10.2-4.3-21-6.4-32.2-6.4c-19.2,0.1-37.8,6.9-52.6,19.1
		c-8.1,6.8-14.9,15-19.8,24.3c-2.5,4.7-4.6,9.6-6.2,14.7c4.7,1.1,9.4,2.5,13.9,4.4c7,2.9,13.4,6.7,19.3,11.4c0-0.1,0-0.3,0.1-0.4
		c0.1-0.4,0.2-0.8,0.3-1.2c2.2-9.9,7.7-18.9,15.6-25.4c8.4-7,18.6-10.7,29.5-10.7c17.2-0.1,32.4,9.3,40.4,23.3
		c8.1,14,8.6,31.7,0,46.7c-5.5,9.5-13.8,16.5-24.1,20.2c-9.6,3.5-20.1,3.8-29.8,0.8c-0.4-0.1-0.8-0.2-1.2-0.4
		c-0.1,0-0.2-0.1-0.4-0.1c1.1,7.4,1.2,14.9,0.2,22.4c-0.6,4.9-1.7,9.6-3.1,14.2c5.2,1.2,10.5,1.8,15.8,2c10.5,0.3,21-1.4,30.9-5
		c18-6.6,33.2-19.4,42.8-36c5.6-9.6,9.2-20.1,10.6-31.1c1.4-10.6,0.6-21.2-2.1-31.6c-1.9-7.2-4.7-13.9-8.3-20.3
		C247.4,35,242.9,29.2,237.6,24z"/>
	<linearGradient id="SVGID_8_" gradientUnits="userSpaceOnUse" x1="16.23" y1="179.3988" x2="148.6508" y2="97.9473">
		<stop  offset="0" style="stop-color:#18509A"/>
		<stop  offset="0.5774" style="stop-color:#593C8C"/>
	</linearGradient>
	<path class="st12" d="M159,125c-10.7-1.9-21.8,3-27.6,12.9c-1.4,2.5-2.4,5.1-3,7.7c-0.1,0.7-0.2,1.5-0.4,2.2c-1,5-2.8,9.8-5.4,14.2
		c-12.9,22.1-41.4,29.7-63.5,16.8c-7.2-4.2-12.9-10.1-16.8-16.9c-3.9-6.8-6.2-14.6-6.2-23C36,113.2,56.8,92.3,82.4,92.2
		c5.1,0,10.2,0.8,15,2.4c0.7,0.2,1.4,0.5,2.1,0.8c2.6,0.8,5.3,1.3,8.2,1.3c11.5,0,21.2-7.3,24.9-17.5c0.6-1.7,0.9-3.5,1.2-5.3
		c-3.1-2.4-6.3-4.6-9.7-6.6c0,0,0,0,0,0c0,0-0.1-0.1-0.1-0.1c-11.9-6.9-25.4-10.7-39.1-11.1c-0.8,0-1.7,0-2.5,0
		c-11.1,0-22,2.3-32.1,6.6C40.4,66.9,31.5,72.9,24,80.5c-7.6,7.6-13.5,16.5-17.6,26.3C2.1,117,0,127.8,0,139s2.3,22,6.6,32.1
		c1.3,3,2.8,6,4.4,8.8v0c0,0,0,0,0,0c0,0,0,0,0,0l0,0c1.6,2.8,3.4,5.6,5.4,8.2c6.6,8.9,14.9,16.2,24.5,21.8
		c9.6,5.6,20.1,9.2,31.1,10.6c10.6,1.4,21.2,0.6,31.6-2.1c10.4-2.7,19.9-7.4,28.5-13.8c8.9-6.6,16.2-14.9,21.8-24.5
		c0.4-0.7,0.8-1.5,1.2-2.2c6.6-12.1,10-25.7,10-39.4c0,0,0-0.1,0-0.1c0,0,0,0,0,0c0-3.9-0.3-7.8-0.9-11.7
		C162.5,125.9,160.8,125.3,159,125z"/>
</g>
</svg>
