<svg xmlns="http://www.w3.org/2000/svg" width="262" height="297" viewBox="0 0 262 297"><defs><radialGradient id="a" cx="23.301%" cy="67.037%" r="86.388%" fx="23.301%" fy="67.037%"><stop stop-color="#3B134E" offset="23.84%"/><stop stop-color="#FF007F" offset="64.94%"/></radialGradient><linearGradient id="b" x1="17.432%" x2="85.872%" y1="74.009%" y2="20.561%"><stop stop-color="#224FBD" offset="0%"/><stop stop-color="#563EA4" offset="100%"/></linearGradient><linearGradient id="c" x1="49.999%" x2="49.999%" y1="13.294%" y2="99.741%"><stop stop-color="#AA1B5C" offset="0%"/><stop stop-color="#CD6793" offset="100%"/></linearGradient><linearGradient id="d" x1=".001%" y1="50.003%" y2="50.003%"><stop stop-color="#AA1B5C" offset="0%"/><stop stop-color="#CD6793" offset="100%"/></linearGradient><linearGradient id="e" x1="-.001%" x2="100.001%" y1="50%" y2="50%"><stop stop-color="#603672" offset="0%"/><stop stop-color="#9D4E8F" offset="100%"/></linearGradient><linearGradient id="f" x1="-.002%" y1="50%" y2="50%"><stop stop-color="#603672" offset="0%"/><stop stop-color="#9D4E8F" offset="100%"/></linearGradient><linearGradient id="g" x1="0%" y1="50.001%" y2="50.001%"><stop stop-color="#73639F" offset="0%"/><stop stop-color="#41316D" offset="100%"/></linearGradient><linearGradient id="h" x1=".001%" x2="100.002%" y1="49.999%" y2="49.999%"><stop stop-color="#2350BE" offset="0%"/><stop stop-color="#563EA4" offset="100%"/></linearGradient><linearGradient id="i" x1="-.002%" y1="50.002%" y2="50.002%"><stop stop-color="#1B2655" offset="0%"/><stop stop-color="#3B4D93" offset="100%"/></linearGradient></defs><g fill="none" fill-rule="evenodd"><path fill="url(#a)" d="M160.753 9.215c-26.234 15.147-38.36 45.34-31.78 73.385 15.724-.236 30.364-9.734 36.037-25.388l.005.008c2.43-6.77 7.173-12.752 13.89-16.63 15.07-8.702 34.343-3.538 43.045 11.533 8.703 15.072 3.538 34.343-11.533 43.045-6.717 3.878-14.252 5.02-21.332 3.74-16.248-2.887-31.67 4.865-39.796 18.14 21.01 19.01 52.673 23.262 78.532 8.332 32.08-18.52 43.07-59.54 24.55-91.617-18.522-32.077-59.54-43.07-91.62-24.548z"/><circle cx="90.805" cy="128.114" r="19.772" fill="#3C47A2"/><path fill="url(#b)" d="M187.515 98.658c-6.597-1.04-13.026.495-13.034.47-16.06 3.382-28.947 16.968-30.894 34.66l-.003-.002c-1.678 16.72-11.102 32.42-26.766 41.465-25.86 14.93-58.924 6.07-73.853-19.788-14.93-25.858-6.07-58.923 19.79-73.852 15.665-9.044 33.972-9.356 49.292-2.45l-.003-.003c16.385 7.198 34.712 2.76 45.654-9.604 0 0 4.375-4.7 6.772-10.933-8.628 7.372-20.003-1.69-20.003-1.69C116.564 35.3 77.28 31.435 44.815 50.18 1.98 74.91-12.7 129.685 12.033 172.522c24.73 42.837 79.618 57.537 122.455 32.805 32.308-18.653 48.474-54.31 44.15-89.195 0 0-2.3-14.55 8.877-17.474z"/><path fill="#FF007F" d="M204.055 274.47c-3.858-1.33-7.503-2.262-7.503-4.258v-.134c0-1.398 1.343-2.46 3.805-2.46 2.13 0 4.895.863 7.756 2.26.667.334 1.153.466 1.885.466 2.262 0 4.07-1.73 4.07-3.992 0-1.73-.93-3.062-2.39-3.793-3.462-1.73-7.472-2.73-11.2-2.73-7.188 0-13.194 4.058-13.194 11.313v.133c0 6.92 5.6 9.25 10.59 10.713 3.926 1.198 7.33 1.93 7.33 4.126v.13c0 1.6-1.12 2.664-4.048 2.664-1.904 0-3.93-.475-6.155-1.42-.13-.06-1.08-.516-1.15-.55-2.305-1.11-4.382-.388-5.467 1.415-.92 1.53-.818 4.265 1.744 5.54.517.255 5.577 2.655 11.14 2.655 7.72 0 13.82-3.448 13.82-11.366v-.132c0-6.523-6.04-8.917-11.032-10.58z"/><path fill="url(#c)" d="M18.343 26.735v.13c0 1.598-1.12 2.664-4.047 2.664-1.905 0-3.93-.477-6.154-1.42-.132-.062-1.082-.518-1.15-.55-2.307-1.11-4.384-.39-5.468 1.414-.922 1.53-.818 4.264 1.744 5.538.517.257 5.577 2.657 11.14 2.657 7.104 0 12.834-2.926 13.704-9.563l-13.8-4c2.353.766 4.03 1.585 4.03 3.128z" transform="translate(186.864 259.388)"/><path fill="url(#d)" d="M9.688 10.824v-.134c0-1.398 1.343-2.46 3.805-2.46 2.13 0 4.895.863 7.757 2.26.666.334 1.152.466 1.885.466 2.26 0 4.068-1.73 4.068-3.992 0-1.73-.928-3.062-2.39-3.793-3.46-1.73-7.47-2.728-11.2-2.728C7.18.442 1.696 3.697.617 9.584l12.05 3.91c-1.764-.723-2.978-1.52-2.978-2.67z" transform="translate(186.864 259.388)"/><path fill="#9D4E8F" d="M168.534 296.557c-2.696 0-4.944-2.183-4.944-4.878v-27.176c0-2.695 2.248-4.878 4.944-4.878 2.693 0 4.942 2.183 4.942 4.878v27.175c0 2.694-2.25 4.877-4.942 4.877z"/><path fill="url(#e)" d="M.248 32.292V5.117c0-2.696 2.164-4.88 4.858-4.88 2.798 0 5.028 2.092 5.028 4.88 0 0 .142 3.123-5.025 13.492C.382 28.973.247 32.29.247 32.29z" transform="translate(163.343 259.388)"/><g><path fill="#9D4E8F" d="M146.296 296.557c-2.695 0-4.942-2.183-4.942-4.878v-27.176c0-2.695 2.247-4.878 4.942-4.878 2.695 0 4.943 2.183 4.943 4.878v27.175c0 2.694-2.25 4.877-4.944 4.877z"/><path fill="url(#f)" d="M.226 32.292V5.117C.226 2.42 2.39.237 5.083.237c2.8 0 5.03 2.092 5.03 4.88 0 0 .14 3.123-5.026 13.492C.36 28.973.227 32.29.227 32.29z" transform="translate(141.128 259.388)"/></g><g><path fill="url(#g)" d="M18.815 36.85C8.755 36.85.572 28.67.572 18.61.572 8.55 8.754.365 18.815.365c10.06 0 18.242 8.183 18.242 18.243 0 2.5-2.028 4.528-4.53 4.528-2.5 0-4.53-2.028-4.53-4.53 0-5.064-4.12-9.184-9.183-9.184-5.064 0-9.185 4.12-9.185 9.185 0 5.062 4.12 9.184 9.184 9.184 2.5 0 4.53 2.028 4.53 4.528 0 2.503-2.03 4.53-4.53 4.53z" transform="translate(92.125 259.388)"/><path fill="#73639F" d="M117.06 273.128h-4.877c-2.502 0-4.53 2.132-4.53 4.634 0 2.5 2.027 4.764 4.53 4.764h12.54c6.38 0 4.208-7.728 3.8-9.398H117.06z"/></g><g><path fill="url(#h)" d="M18.532 36.68C8.474 36.68.292 28.5.292 18.44.29 8.38 8.473.197 18.53.197c5 0 9.837 2.086 13.272 5.725 1.716 1.818 1.633 4.686-.187 6.403-1.82 1.716-4.685 1.634-6.4-.186-1.756-1.86-4.13-2.884-6.685-2.884-5.064 0-9.184 4.12-9.184 9.184 0 5.064 4.12 9.184 9.184 9.184 2.542 0 4.906-1.014 6.658-2.857 1.723-1.812 4.59-1.885 6.404-.16 1.812 1.724 1.883 4.59.158 6.404-3.427 3.605-8.246 5.67-13.22 5.67z" transform="translate(47.696 259.388)"/><path fill="url(#i)" d="M9.35 18.44c0-5.066 4.12-9.184 9.183-9.184 2.555 0 4.93 1.023 6.683 2.884 1.717 1.82 4.583 1.902 6.402.185 1.82-1.717 1.903-4.585.187-6.403C28.37 2.284 23.532.197 18.533.197c-5.33 0-10.128 2.297-13.465 5.953-1.23 1.347-.365 13.757 7.462 19.22-1.945-1.683-3.18-4.163-3.18-6.93z" transform="translate(47.696 259.388)"/></g></g></svg>